HIERARCHY
ROOT Hips
{
	OFFSET	0.00	0.00	0.00
	CHANNELS 6 Xposition Yposition Zposition Zrotation Xrotation Yrotation
	JOINT Spine
	{
		OFFSET	 0.00	0.01	 0.00
		CHANNELS 3 Zrotation Xrotation Yrotation
		JOINT Spine1
		{
			OFFSET	 0.00	 2.45913012437421	 0.00
			CHANNELS 3 Zrotation Xrotation Yrotation
            JOINT Neck
            {
                OFFSET	 0.00	 2.48462964506057	 0.00
                CHANNELS 3 Zrotation Xrotation Yrotation
                JOINT Head
                {
                    OFFSET	 0.00	 0.927524780924562	 0.00
                    CHANNELS 3 Zrotation Xrotation Yrotation
                    End Site 
                    {
                        OFFSET	 0.00	 1.14999962169752	 0.00
                    }
                }
            }
			JOINT LeftShoulder
			{
				OFFSET	 0.00	 2.48462964506057	 0.00
				CHANNELS 3 Zrotation Xrotation Yrotation
				JOINT LeftUpArm
				{
					OFFSET	 0.00	 1.24881979654096	 0.00
					CHANNELS 3 Zrotation Xrotation Yrotation
					JOINT LeftForeArm
					{
						OFFSET	 0.00	2.59758046908119	 0.00
						CHANNELS 3 Zrotation Xrotation Yrotation
						JOINT LeftHand
						{
							OFFSET	 0.00	2.45542024364365	 0.00
							CHANNELS 3 Zrotation Xrotation Yrotation
							JOINT LeftHandThumb 
							{
								OFFSET	 0.00	0.00	 0.00
								CHANNELS 3 Zrotation Xrotation Yrotation
								End Site
								{
									OFFSET	 0.00	0.00	1.00000003353624
								}
							}
							JOINT L_Wrist_End 
							{
								OFFSET	 0.00	0.99999967115358	 0.00
								CHANNELS 3 Zrotation Xrotation Yrotation
								End Site 
								{
									OFFSET	 0.00	 0.00	 0.00
								}
							}
						}
					}
				}
			}
			JOINT RightShoulder
			{
				OFFSET	 0.00	 2.48462964506057	 0.00
				CHANNELS 3 Zrotation Xrotation Yrotation
				JOINT RightUpArm
				{
					OFFSET	 0.00	 1.24881979654096	 0.00
					CHANNELS 3 Zrotation Xrotation Yrotation
					JOINT RightForeArm
					{
						OFFSET	 0.00	2.59758046908119	 0.00
						CHANNELS 3 Zrotation Xrotation Yrotation
						JOINT RightHand
						{
							OFFSET	 0.00	2.45542024364365	 0.00
							CHANNELS 3 Zrotation Xrotation Yrotation
							JOINT RightHandThumb 
							{
								OFFSET	 0.00	0.00	 0.00
								CHANNELS 3 Zrotation Xrotation Yrotation
								End Site
								{
									OFFSET	 0.00	0.00	1.00000003353624
								}
							}
							JOINT R_Wrist_End 
							{
								OFFSET	 0.00	0.99999967115358	 0.00
								CHANNELS 3 Zrotation Xrotation Yrotation
								End Site 
								{
									OFFSET	 0.00	 0.00	 0.00
								}
							}
						}
					}
				}
			}
		}
	}
	JOINT LeftUpLeg
	{
		OFFSET	 1.2719394002717	 0.00	 0.00
		CHANNELS 3 Zrotation Xrotation Yrotation
		JOINT LeftLowLeg
		{
			OFFSET	 0.00	-4.3429100912261	 0.00
			CHANNELS 3 Zrotation Xrotation Yrotation
			JOINT LeftFoot
			{
				OFFSET	 0.00	-4.48767017425826	 0.00
				CHANNELS 3 Zrotation Xrotation Yrotation
				JOINT LeftToeBase
                {
                    OFFSET	 0.00	0.00	 1.51507020887566
                    CHANNELS 3 Zrotation Xrotation Yrotation
                    End Site 
                    {
                        OFFSET	 0.00	0.00	 0.75000010571191
                    }
                }
			}
		}
	}
	JOINT RightUpLeg
	{
		OFFSET	 -1.2719393604653	 0.00	 0.00
		CHANNELS 3 Zrotation Xrotation Yrotation
		JOINT RightLowLeg
		{
			OFFSET	 0.00	-4.3429100912261	 0.00
			CHANNELS 3 Zrotation Xrotation Yrotation
			JOINT RightFoot
			{
				OFFSET	 0.00	-4.48767017425826	 0.00
				CHANNELS 3 Zrotation Xrotation Yrotation
				JOINT RightToeBase
                {
                    OFFSET	 0.00	0.00	 1.51507020887566
                    CHANNELS 3 Zrotation Xrotation Yrotation
                    End Site 
                    {
                        OFFSET	 0.00	0.00	 0.749999965609858
                    }
                }   
			}
		}
	}
}
MOTION 
Frames:	18 
Frame Time: 0.02 
 1.8792900085449218 -3.681679992675781 9.350079956054687 -157.641 83.5312 517.183 0.346632 -6.7896 -1.52541 4.36732 -4.16103 -1.53615 -9.52691 57.6979 358.978 94.9039 -77.1371 795.066 -113.9471 -11.4488 -15.5196 20.8759 10.7029 -25.667 0.0 5.03502 0.0 20.8714 -6.10799 27.3232 0.0 0.0 0.0 0.0 0.0 0.0 109.0082 -9.45414 -344.716 -11.8386 3.25858 48.1885 0.0 17.4818 0.0 -25.0595 -11.9185 -49.0085 0.0 0.0 0.0 0.0 0.0 0.0 3.37461 -3.68676 1.43589 0.0 7.75127 0.0 -17.9018 1.3209 6.85864 0.0 -32.1512 0.0 6.70333 -2.7239 8.28155 0.0 11.4037 0.0 12.9415 1.2573004 -17.4485 0.0 -27.4916 0.0 
  1.8667599487304687 -3.68947998046875 9.3489599609375 -157.739 83.5634 517.323 0.278888 -6.90392 -1.54534 4.40642 -3.99995 -1.55282 -9.51346 57.6592 358.95 95.1145 -77.1291 795.399 -114.0021 -11.4384 -15.6044 20.8347 10.769 -25.7438 0.0 5.07398 0.0 21.1231 -6.07021 27.0227 0.0 0.0 0.0 0.0 0.0 0.0 109.0432 -9.44265 -344.632 -11.8582 3.30825 48.4078 0.0 17.4705 0.0 -25.0093 -11.9689 -48.9356 0.0 0.0 0.0 0.0 0.0 0.0 3.44059 -3.64895 1.78804 0.0 7.80122 0.0 -17.9307 1.3838997 6.54522 0.0 -32.2179 0.0 6.75056 -2.62759 8.23252 0.0 11.366 0.0 12.8474 1.2187004 -17.4485 0.0 -27.382 0.0 
  1.854320068359375 -3.697049865722656 9.347730102539062 -157.799 83.5926 517.415 0.232293 -7.00159 -1.55476 4.42707 -3.87639 -1.56034 -9.54297 57.6011 358.959 95.2334 -77.1503 795.596 -114.014 -11.4115 -15.4859 20.7824 10.73 -25.8363 0.0 5.08538 0.0 21.4866 -5.82541 26.728 0.0 0.0 0.0 0.0 0.0 0.0 109.0721 -9.39889 -344.68 -11.8851 3.2631 48.5962 0.0 17.4895 0.0 -25.099 -11.9412 -49.3758 0.0 0.0 0.0 0.0 0.0 0.0 3.50654 -3.60458 1.97565 0.0 7.84486 0.0 -17.9885 1.3864002 6.35837 0.0 -32.2159 0.0 6.80364 -2.51274 8.2058 0.0 11.2936 0.0 12.8792 1.1836004 -17.4419 0.0 -27.4531 0.0 
  1.8425900268554687 -3.705780029296875 9.346010131835937 -157.913 83.5814 517.577 0.209141 -7.17579 -1.57861 4.43028 -3.7335 -1.588 -9.58293 57.5652 359.016 94.9642 -77.158 795.377 -113.9965 -11.4013 -15.4205 20.6959 10.6823 -25.6803 0.0 5.14453 0.0 21.7503 -5.73343 26.2122 0.0 0.0 0.0 0.0 0.0 0.0 109.0436 -9.33404 -344.78 -11.8646 3.18675 48.5543 0.0 17.4961 0.0 -25.0419 -12.02 -48.9782 0.0 0.0 0.0 0.0 0.0 0.0 3.56237 -3.53165 1.70238 0.0 7.77425 0.0 -18.0863 1.2989998 6.51055 0.0 -32.2219 0.0 6.86877 -2.44565 8.16548 0.0 11.2553 0.0 12.8409 1.132 -17.4568 0.0 -27.4345 0.0 
  1.829010009765625 -3.714779968261719 9.34426025390625 -158.028 83.5864 517.777 0.15661 -7.30521 -1.60393 4.42598 -3.68643 -1.60608 -9.62444 57.6115 359.098 94.6039 -77.138 795.039 -113.9829 -11.3716 -15.2254 20.6708 10.6408 -25.7863 0.0 5.18445 0.0 21.9586 -5.51577 26.0441 0.0 0.0 0.0 0.0 0.0 0.0 109.0296 -9.32285 -344.818 -11.8534 3.13086 48.4205 0.0 17.4603 0.0 -25.1011 -11.9184 -49.3907 0.0 0.0 0.0 0.0 0.0 0.0 3.628 -3.55822 1.63205 0.0 7.90567 0.0 -18.1917 1.2096996 6.47161 0.0 -32.181 0.0 6.93976 -2.38415 8.10011 0.0 11.2585 0.0 12.7391 1.0784998 -17.4891 0.0 -27.3545 0.0 
  1.8149400329589844 -3.7224798583984375 9.343079833984374 -158.298 83.5857 518.102 0.0684306 -7.41364 -1.6245 4.45935 -3.72978 -1.60764 -9.71114 57.7781 359.221 94.1581 -77.1242 794.552 -114.014496 -11.3159 -15.2422 20.6613 10.6599 -25.7041 0.0 5.23102 0.0 22.1275 -5.42043 25.8821 0.0 0.0 0.0 0.0 0.0 0.0 109.0343 -9.26874 -344.865 -11.8698 3.04904 48.2789 0.0 17.4977 0.0 -24.9499 -12.0346 -49.0856 0.0 0.0 0.0 0.0 0.0 0.0 3.68621 -3.62065 1.56747 0.0 8.0808 0.0 -18.2732 1.1438999 6.45959 0.0 -32.127502 0.0 7.01501 -2.38412 8.19571 0.0 11.3427 0.0 12.7327 0.9783001 -17.5932 0.0 -27.306599 0.0 
  1.8018699645996095 -3.7299600219726563 9.341829833984375 -158.571 83.5877 518.437 0.0302422 -7.49092 -1.62715 4.43 -3.84967 -1.59607 -9.79478 57.9998 359.358 93.7102 -77.0805 794.091 -114.0086 -11.2319 -15.1863 20.6403 10.6549 -25.6944 0.0 5.25508 0.0 22.2531 -5.28228 25.6098 0.0 0.0 0.0 0.0 0.0 0.0 109.0395 -9.25018 -344.779 -11.8615 3.02602 48.0851 0.0 17.4857 0.0 -24.9708 -11.939 -49.0659 0.0 0.0 0.0 0.0 0.0 0.0 3.72668 -3.66344 1.24194 0.0 8.21848 0.0 -18.3872 1.0200005 6.64396 0.0 -32.1002 0.0 7.07707 -2.35458 8.25247 0.0 11.3683 0.0 12.6624 0.90219975 -17.6952 0.0 -27.1997 0.0 
  1.7875900268554688 -3.7379000854492186 9.340859985351562 -158.948 83.5586 518.902 -0.0747652 -7.65609 -1.6679 4.51254 -3.8432 -1.61758 -9.86198 58.116 359.445 93.3971 -77.0737 793.778 -114.0608 -11.1443 -15.2787 20.6001 10.6245 -25.7285 0.0 5.30832 0.0 22.3278 -5.10882 25.7074 0.0 0.0 0.0 0.0 0.0 0.0 109.0107 -9.20894 -344.65 -11.8384 3.03619 47.9764 0.0 17.4769 0.0 -24.986 -11.84 -48.9792 0.0 0.0 0.0 0.0 0.0 0.0 3.78098 -3.81117 1.17057 0.0 8.48086 0.0 -18.4906 0.9432001 6.61922 0.0 -32.074303 0.0 7.14637 -2.35489 8.26495 0.0 11.3929 0.0 12.5822 0.8774996 -17.7927 0.0 -27.2613 0.0 
  1.7734100341796875 -3.743760070800781 9.340180053710938 -158.941 83.5955 518.912 -0.123096 -7.71267 -1.67269 4.54542 -3.79981 -1.61509 -9.90538 58.0683 359.532 93.2945 -77.0629 793.607 -114.0982 -11.1245 -15.1931 20.6033 10.5774 -25.792 0.0 5.31667 0.0 22.3918 -5.07702 25.7614 0.0 0.0 0.0 0.0 0.0 0.0 109.031204 -9.14116 -344.613 -11.8674 2.98722 47.8522 0.0 17.4817 0.0 -24.9037 -11.8617 -48.9815 0.0 0.0 0.0 0.0 0.0 0.0 3.85242 -3.87591 1.16002 0.0 8.72828 0.0 -18.5738 0.8626003 6.62666 0.0 -32.0363 0.0 7.23659 -2.35007 8.3812 0.0 11.5226 0.0 12.5202 0.8161001 -17.8874 0.0 -27.1344 0.0 
  1.7592599487304688 -3.7490301513671875 9.340059814453125 -158.924 83.6619 518.934 -0.193505 -7.78061 -1.68326 4.61717 -3.60813 -1.62228 -9.74413 57.8949 359.372 93.5478 -77.0295 793.934 -114.1471 -11.1407 -15.0977 20.5928 10.5882 -25.8742 0.0 5.22908 0.0 22.4293 -5.05058 25.7587 0.0 0.0 0.0 0.0 0.0 0.0 108.9927 -9.10972 -344.685 -11.8178 2.89807 48.0225 0.0 17.5597 0.0 -24.8199 -11.9927 -49.2101 0.0 0.0 0.0 0.0 0.0 0.0 3.90897 -3.92261 1.11215 0.0 8.98246 0.0 -18.6873 0.7943001 6.64619 0.0 -32.004997 0.0 7.31642 -2.3287 8.40181 0.0 11.6658 0.0 12.5142 0.7728996 -17.9229 0.0 -27.0542 0.0 
  1.7430900573730468 -3.7508999633789064 9.340339965820313 -158.35 83.8118 518.411 -0.205868 -7.62927 -1.68014 4.61914 -3.58673 -1.61752 -9.52576 57.7128 359.159 93.5529 -77.0047 793.884 -114.0831 -11.1318 -14.9657 20.5147 10.5605 -25.6811 0.0 5.1315 0.0 22.5122 -5.08648 25.6802 0.0 0.0 0.0 0.0 0.0 0.0 108.9741 -9.11052 -344.834 -11.7839 2.84243 48.1899 0.0 17.5003 0.0 -24.8218 -12.0676 -48.9398 0.0 0.0 0.0 0.0 0.0 0.0 4.0255 -3.94647 1.30998 0.0 9.33423 0.0 -18.7872 0.79139996 6.42028 0.0 -31.9843 0.0 7.43909 -2.26274 8.44755 0.0 11.8435 0.0 12.5642 0.79780006 -18.0035 0.0 -27.2894 0.0 
  1.7270100402832032 -3.7496600341796875 9.340330200195313 -158.099 84.0002 518.208 -0.270546 -7.43252 -1.68899 4.64433 -3.53125 -1.61639 -9.27688 57.4934 358.889 93.7799 -76.9857 794.109 -114.0509 -11.2117 -14.8779 20.4362 10.6652 -25.7432 0.0 4.96542 0.0 22.6087 -5.08663 25.5914 0.0 0.0 0.0 0.0 0.0 0.0 108.9405 -9.11126 -344.893 -11.7325 2.84787 48.3678 0.0 17.4395 0.0 -24.8659 -12.1744 -48.6682 0.0 0.0 0.0 0.0 0.0 0.0 4.08828 -4.00528 1.53537 0.0 9.75414 0.0 -18.8484 0.80770016 6.22056 0.0 -31.9991 0.0 7.50248 -2.19757 8.37522 0.0 12.0547 0.0 12.5666 0.74380016 -17.9555 0.0 -27.153599 0.0 
  1.710260009765625 -3.747070007324219 9.3402001953125 -157.434 84.1907 517.595 -0.29735 -7.13066 -1.69707 4.67564 -3.65944 -1.61215 -9.07774 57.4039 358.676 93.7415 -76.9658 794.051 -114.0182 -11.2525 -14.8024 20.3807 10.7272 -25.7919 0.0 4.83917 0.0 22.6879 -5.13312 25.725 0.0 0.0 0.0 0.0 0.0 0.0 108.871 -9.05673 -345.032 -11.6964 2.75821 48.499 0.0 17.3795 0.0 -24.9856 -12.1049 -49.0132 0.0 0.0 0.0 0.0 0.0 0.0 4.18601 -4.00641 1.52416 0.0 10.0814 0.0 -18.9853 0.77509975 6.15412 0.0 -32.009598 0.0 7.60213 -2.12559 8.26081 0.0 12.2634 0.0 12.5144 0.7496004 -17.8925 0.0 -27.081501 0.0 
  1.6928700256347655 -3.7415200805664064 9.339940185546874 -157.156 84.3353 517.381 -0.331107 -6.85021 -1.69009 4.67267 -3.86595 -1.58694 -8.82927 57.4376 358.401 93.6387 -76.9319 793.91 -113.9994 -11.2371 -14.7471 20.375 10.8224 -25.8841 0.0 4.73556 0.0 22.7716 -5.21248 25.8286 0.0 0.0 0.0 0.0 0.0 0.0 108.842804 -9.04639 -345.021 -11.7001 2.76132 48.4871 0.0 17.2951 0.0 -25.109 -12.1584 -48.9362 0.0 0.0 0.0 0.0 0.0 0.0 4.26162 -4.11916 1.55666 0.0 10.4677 0.0 -19.0919 0.75739956 6.09472 0.0 -32.0293 0.0 7.68264 -2.11948 8.11877 0.0 12.4467 0.0 12.4308 0.76500034 -17.8271 0.0 -27.028 0.0 
  1.6735600280761718 -3.734580078125 9.33927001953125 -156.872 84.4615 517.175 -0.363248 -6.55697 -1.67791 4.6503 -4.13928 -1.55295 -8.44054 57.5937 357.929 93.6213 -76.8855 793.947 -113.9447 -11.2251 -14.7074 20.344 10.9586 -26.0126 0.0 4.69212 0.0 22.859 -5.30758 26.0101 0.0 0.0 0.0 0.0 0.0 0.0 108.847 -9.0452 -344.943 -11.7253 2.75702 48.405 0.0 17.2764 0.0 -25.101 -12.3347 -48.6073 0.0 0.0 0.0 0.0 0.0 0.0 4.36152 -4.27165 1.68456 0.0 10.8693 0.0 -19.196 0.7567997 5.95317 0.0 -32.0194 0.0 7.78301 -2.1106 8.00306 0.0 12.5817 0.0 12.3955 0.75409985 -17.791 0.0 -27.006 0.0 
  1.6531900024414063 -3.7252899169921876 9.339030151367188 -157.327 84.5235 517.672 -0.378112 -5.99233 -1.67513 4.53606 -5.03962 -1.49726 -8.10151 58.0041 357.525 93.4262 -76.8035 793.849 -113.826904 -11.3926 -14.4754 20.3421 11.1212 -26.0508 0.0 4.7018 0.0 22.8943 -5.39396 26.072 0.0 0.0 0.0 0.0 0.0 0.0 108.8217 -9.07674 -345.095 -11.6988 2.74189 48.3375 0.0 17.2963 0.0 -25.1851 -12.3331 -49.0441 0.0 0.0 0.0 0.0 0.0 0.0 4.43459 -4.50334 1.88258 0.0 11.2391 0.0 -19.2732 0.8270998 5.79807 0.0 -32.083 0.0 7.84389 -2.21862 7.79984 0.0 12.7517 0.0 12.2416 0.76539993 -17.6832 0.0 -26.935501 0.0 
  1.6313400268554688 -3.7163400268554687 9.338679809570312 -157.919 84.5392 518.337 -0.503814 -5.84898 -1.66865 4.57385 -5.25498 -1.45916 -7.93314 58.123 357.348 93.245 -76.7654 793.623 -113.8156 -11.415 -14.5596 20.3119 11.3063 -25.9907 0.0 4.78461 0.0 22.9367 -5.41085 26.1624 0.0 0.0 0.0 0.0 0.0 0.0 108.8082 -9.04107 -345.045 -11.6728 2.66961 48.2886 0.0 17.3772 0.0 -25.2694 -12.3974 -49.0169 0.0 0.0 0.0 0.0 0.0 0.0 4.51967 -4.73084 1.92944 0.0 11.5066 0.0 -19.422 0.9041004 5.70334 0.0 -32.136497 0.0 7.90702 -2.30688 7.64257 0.0 12.7847 0.0 12.1881 0.8111 -17.5909 0.0 -27.0348 0.0 
  1.608489990234375 -3.706390075683594 9.337860107421875 -158.64 84.5936 519.107 -0.631209 -5.69726 -1.65834 4.54954 -5.38149 -1.42104 -7.64115 58.1629 357.044 93.1062 -76.7038 793.482 -113.729904 -11.5058 -14.6116 20.2159 11.4988 -25.9583 0.0 4.91599 0.0 22.9706 -5.38534 26.1344 0.0 0.0 0.0 0.0 0.0 0.0 108.8064 -8.96847 -345.007 -11.5962 2.53068 48.2811 0.0 17.4618 0.0 -25.1061 -12.3151 -48.4945 0.0 0.0 0.0 0.0 0.0 0.0 4.5888 -4.89063 2.03211 0.0 11.7052 0.0 -19.5646 0.99590015 5.58437 0.0 -32.191 0.0 7.93769 -2.39181 7.29497 0.0 12.8887 0.0 12.001 0.82820034 -17.3322 0.0 -26.7793 0.0 
